<svg width="1200" height="800" viewBox="0 0 1200 800" fill="none" xmlns="http://www.w3.org/2000/svg">
  <defs>
    <linearGradient id="bgGradient" x1="0" y1="0" x2="1" y2="1">
      <stop offset="0%" stop-color="#F8FAFC" />
      <stop offset="50%" stop-color="#E0F2FE" />
      <stop offset="100%" stop-color="#DBEAFE" />
    </linearGradient>
    <linearGradient id="cardGradient" x1="0" y1="0" x2="1" y2="1">
      <stop offset="0%" stop-color="#FDE68A" />
      <stop offset="100%" stop-color="#F97316" />
    </linearGradient>
    <linearGradient id="accentGradient" x1="0" y1="0" x2="0" y2="1">
      <stop offset="0%" stop-color="#3B82F6" />
      <stop offset="100%" stop-color="#1D4ED8" />
    </linearGradient>
    <filter id="softShadow" x="-20%" y="-20%" width="140%" height="140%" color-interpolation-filters="sRGB">
      <feDropShadow dx="0" dy="20" stdDeviation="40" flood-color="#0F172A" flood-opacity="0.12" />
    </filter>
    <filter id="phoneShadow" x="-20%" y="-20%" width="140%" height="140%" color-interpolation-filters="sRGB">
      <feDropShadow dx="0" dy="30" stdDeviation="45" flood-color="#0F172A" flood-opacity="0.18" />
    </filter>
  </defs>
  <rect width="1200" height="800" fill="url(#bgGradient)" />
  <circle cx="220" cy="180" r="120" fill="#BFDBFE" opacity="0.4" />
  <circle cx="1040" cy="140" r="180" fill="#C7D2FE" opacity="0.35" />
  <circle cx="180" cy="640" r="200" fill="#A5F3FC" opacity="0.3" />
  <g filter="url(#softShadow)">
    <rect x="140" y="140" width="460" height="520" rx="32" fill="#FFFFFF" />
    <rect x="180" y="200" width="380" height="160" rx="24" fill="#F1F5F9" />
    <rect x="180" y="380" width="380" height="220" rx="24" fill="#EFF6FF" />
    <text x="200" y="260" fill="#0F172A" font-family="'PT Sans', 'Segoe UI', sans-serif" font-size="28" font-weight="700">Waarom gezinnen KlusjesKoning kiezen</text>
    <text x="200" y="310" fill="#1E293B" font-family="'PT Sans', 'Segoe UI', sans-serif" font-size="18">• Motivatie voor kinderen met levels, beloningen en confetti</text>
    <text x="200" y="350" fill="#1E293B" font-family="'PT Sans', 'Segoe UI', sans-serif" font-size="18">• Overzicht voor ouders met goedkeuring per klus</text>
    <rect x="200" y="420" width="150" height="70" rx="20" fill="url(#cardGradient)" />
    <text x="220" y="462" fill="#7C2D12" font-family="'PT Sans', 'Segoe UI', sans-serif" font-size="20" font-weight="700">Beloningen</text>
    <rect x="370" y="420" width="170" height="70" rx="20" fill="#E0E7FF" />
    <text x="390" y="462" fill="#1E3A8A" font-family="'PT Sans', 'Segoe UI', sans-serif" font-size="20" font-weight="700">Goede doelen</text>
    <rect x="200" y="510" width="340" height="70" rx="18" fill="#F8FAFC" />
    <text x="220" y="552" fill="#0F172A" font-family="'PT Sans', 'Segoe UI', sans-serif" font-size="20" font-weight="600">Gemini AI bedenkt frisse klus-ideeën</text>
  </g>
  <g filter="url(#phoneShadow)">
    <rect x="640" y="110" width="340" height="580" rx="60" fill="#0F172A" opacity="0.08" />
    <rect x="660" y="130" width="300" height="540" rx="48" fill="#FFFFFF" />
    <rect x="720" y="150" width="180" height="20" rx="10" fill="#CBD5F5" />
    <rect x="740" y="200" width="140" height="32" rx="16" fill="#FACC15" />
    <text x="760" y="222" fill="#854D0E" font-family="'Lilita One', 'Segoe UI', sans-serif" font-size="18">KlusjesKoning</text>
    <circle cx="810" cy="282" r="60" fill="#2563EB" opacity="0.15" />
    <text x="770" y="290" fill="#1D4ED8" font-family="'PT Sans', 'Segoe UI', sans-serif" font-size="42" font-weight="700">👑</text>
    <text x="725" y="340" fill="#0F172A" font-family="'PT Sans', 'Segoe UI', sans-serif" font-size="26" font-weight="700">Welkom terug, Mila!</text>
    <rect x="700" y="372" width="220" height="70" rx="22" fill="#22C55E" />
    <text x="748" y="415" fill="#FFFFFF" font-family="'PT Sans', 'Segoe UI', sans-serif" font-size="24" font-weight="700">Klus afmelden</text>
    <rect x="700" y="462" width="220" height="70" rx="22" fill="#F1F5F9" />
    <text x="742" y="500" fill="#0F172A" font-family="'PT Sans', 'Segoe UI', sans-serif" font-size="20" font-weight="600">Beloning shoppen</text>
    <rect x="700" y="552" width="220" height="70" rx="22" fill="#E0F2FE" />
    <text x="758" y="590" fill="#1E3A8A" font-family="'PT Sans', 'Segoe UI', sans-serif" font-size="20" font-weight="700">Bekijk levels</text>
    <rect x="770" y="640" width="80" height="16" rx="8" fill="#CBD5F5" />
  </g>
  <g filter="url(#softShadow)">
    <rect x="880" y="560" width="220" height="120" rx="28" fill="#1E3A8A" />
    <text x="910" y="610" fill="#F8FAFC" font-family="'PT Sans', 'Segoe UI', sans-serif" font-size="22" font-weight="700">Slimme AI hulp</text>
    <text x="910" y="645" fill="#BFDBFE" font-family="'PT Sans', 'Segoe UI', sans-serif" font-size="18">Altijd nieuwe klusjes-ideeën</text>
  </g>
  <g>
    <rect x="940" y="248" width="180" height="60" rx="24" fill="url(#accentGradient)" opacity="0.18" />
    <rect x="950" y="258" width="160" height="50" rx="20" fill="url(#accentGradient)" />
    <text x="990" y="290" fill="#F8FAFC" font-family="'PT Sans', 'Segoe UI', sans-serif" font-size="20" font-weight="700">Start nu</text>
  </g>
</svg>
